<?xml version="1.0" encoding="UTF-8"?>
<svg xmlns="http://www.w3.org/2000/svg" xmlns:xlink="http://www.w3.org/1999/xlink" viewBox="0 0 100 100" width="100px" height="100px">
<g id="surface246832439">
<path style=" stroke:none;fill-rule:nonzero;fill:rgb(100%,100%,100%);fill-opacity:1;" d="M 28 7.980469 C 16.976562 7.980469 8 16.957031 8 27.980469 L 8 71.980469 C 8 83.003906 16.976562 91.980469 28 91.980469 L 72 91.980469 C 83.023438 91.980469 92 83.003906 92 71.980469 L 92 27.980469 C 92 16.957031 83.023438 7.980469 72 7.980469 Z M 28 11.980469 L 72 11.980469 C 80.863281 11.980469 88 19.117188 88 27.980469 L 88 71.980469 C 88 80.84375 80.863281 87.980469 72 87.980469 L 28 87.980469 C 19.136719 87.980469 12 80.84375 12 71.980469 L 12 27.980469 C 12 19.117188 19.136719 11.980469 28 11.980469 Z M 30 18 C 28.894531 18 28 18.894531 28 20 L 28 80 C 27.988281 80.722656 28.367188 81.390625 28.992188 81.753906 C 29.613281 82.121094 30.386719 82.121094 31.007812 81.753906 C 31.632812 81.390625 32.011719 80.722656 32 80 L 32 22 L 36 22 L 36 80 C 36 81.105469 36.894531 82 38 82 L 46 82 C 47.105469 82 48 81.105469 48 80 L 48 22 L 54 22 C 66.171875 22 76 31.828125 76 44 C 76 55.464844 67.179688 64.542969 56 65.597656 L 56 61.59375 C 64.933594 60.550781 72 53.207031 72 44 C 72 34.082031 63.917969 26 54 26 C 52.894531 26 52 26.894531 52 28 L 52 36 C 52 37.105469 52.894531 38 54 38 C 57.335938 38 60 40.664062 60 44 C 60 47.335938 57.335938 50 54 50 C 53.277344 49.988281 52.609375 50.367188 52.246094 50.992188 C 51.878906 51.613281 51.878906 52.386719 52.246094 53.007812 C 52.609375 53.632812 53.277344 54.011719 54 54 C 59.5 54 64 49.5 64 44 C 64 39.210938 60.515625 35.367188 56 34.40625 L 56 30.402344 C 62.757812 31.40625 68 36.957031 68 44 C 68 51.753906 61.753906 58 54 58 C 52.894531 58 52 58.894531 52 60 L 52 68 C 52 69.105469 52.894531 70 54 70 C 68.335938 70 80 58.335938 80 44 C 80 29.664062 68.335938 18 54 18 L 46 18 C 44.894531 18 44 18.894531 44 20 L 44 78 L 40 78 L 40 20 C 40 18.894531 39.105469 18 38 18 Z M 30 18 "/>
</g>
</svg>
